<svg width="58" height="62" viewBox="0 0 58 62" fill="none" xmlns="http://www.w3.org/2000/svg">
<mask id="path-1-inside-1_25402_187" fill="white">
<path fill-rule="evenodd" clip-rule="evenodd" d="M49.6668 48.4727C54.0984 48.4727 57.7038 52.0125 57.7038 56.3636V59.7455V62H0.29654L0.296387 59.7455V56.3636C0.296387 53.1981 2.20922 50.4691 4.95569 49.2119L6.90833 42.8226C6.96308 42.6461 7.03451 42.4798 7.10612 42.3131C7.13277 42.2511 7.15943 42.189 7.18528 42.1263V24.205C7.18528 22.0561 8.40126 20.1241 10.3589 19.1636L11.7779 18.4668V15.7818H9.48157V12.4C9.48157 10.5357 11.0272 9.01818 12.926 9.01818H19.8149C21.7137 9.01818 23.2593 10.5357 23.2593 12.4V15.7818H20.9631V18.4668L22.3831 19.1636C23.45 19.6865 24.2948 20.5254 24.8532 21.5442C25.2619 21.471 25.6818 21.4182 26.1275 21.4182C27.2156 21.4182 28.1849 21.6626 29.0713 22.1624C29.7558 21.8453 30.8636 21.4182 31.8727 21.4182C34.3848 21.4182 36.2948 22.7226 37.9811 23.8742L37.9835 23.8758C38.6007 24.2975 39.1966 24.6806 39.801 25.0185L42.7779 23.0695V20.2909H38.4561C35.7741 20.2909 33.5927 18.1492 33.5927 15.516C33.5927 14.7784 33.7704 14.0403 34.1057 13.3809L39.5756 2.63984C40.4048 1.01113 42.0715 0 43.926 0C45.7805 0 47.4473 1.01113 48.2764 2.63874L53.7464 13.3798C54.0816 14.0403 54.2593 14.7784 54.2593 15.516C54.2593 18.1492 52.078 20.2909 49.396 20.2909H45.0742V23.0695L51.4512 27.245L50.1775 29.1208L45.0742 25.7798V28.7058L51.4512 32.8814L50.1775 34.7572L45.0742 31.4161V34.3422L51.4512 38.5177L50.1775 40.3936L45.0742 37.0525V39.9785L51.4512 44.153L50.1775 46.0288L45.0742 42.6877V46.3084C46.7998 46.5517 48.3499 47.3295 49.5406 48.4727H49.6668ZM36.1598 14.3887C35.9832 14.7371 35.889 15.1268 35.889 15.516C35.889 16.9058 37.0405 18.0364 38.4561 18.0364H49.396C50.8115 18.0364 51.9631 16.9058 51.9631 15.516C51.9631 15.1268 51.87 14.7371 51.6923 14.3887L46.2223 3.64767C45.9683 3.14954 45.5574 2.77965 45.0742 2.54077H42.7779C42.2946 2.77965 41.8837 3.14954 41.6297 3.64767L36.1598 14.3887ZM49.6668 55.1224V54.1091C49.6668 51.3867 47.6906 49.1096 45.0742 48.5867V49.6C45.0742 52.3213 47.0503 54.5995 49.6668 55.1224ZM38.1853 55.1224C40.8017 54.5995 42.7779 52.3224 42.7779 49.6V48.5867C40.1615 49.1096 38.1853 51.3867 38.1853 54.1091V55.1224ZM12.926 11.2727C12.2936 11.2727 11.7779 11.7791 11.7779 12.4V13.5273H20.9631V12.4C20.9631 11.7791 20.4473 11.2727 19.8149 11.2727H12.926ZM14.0742 19.8605L11.3854 21.1804C10.2104 21.7561 9.48157 22.9153 9.48157 24.205V39.0252C10.1947 38.4434 11.0009 37.9799 11.8844 37.6701L13.2282 31.0754C13.7434 28.5495 15.3899 26.4028 17.6335 25.3356C18.4408 24.9508 19.2066 24.4279 20.0167 23.8747C20.8229 23.3243 21.6829 22.7414 22.6326 22.2807C22.3063 21.8205 21.8769 21.4363 21.3555 21.1804L18.6668 19.8605V15.7818H14.0742V19.8605ZM8.33342 50.7273C5.16817 50.7273 2.59268 53.2559 2.59268 56.3636V59.7455H55.4075V56.3636C55.4075 53.8185 53.669 51.6878 51.3049 50.9898C51.7265 51.947 51.9631 53.0011 51.9631 54.1091V57.4909H50.8149C47.8896 57.4909 45.3326 55.9431 43.926 53.6434C42.5194 55.9431 39.9624 57.4909 37.0371 57.4909H35.889V54.1091C35.889 50.1422 38.8889 46.8583 42.7779 46.3084V42.6877L37.6734 46.0277L36.3997 44.1519L42.7779 39.9774V37.0514L37.6734 40.3914L36.3997 38.5155L42.7779 34.3411V31.415L37.6734 34.755L36.3997 32.8792L42.7779 28.7047V25.7787L37.6734 29.1197L36.3997 27.2439L37.6891 26.4006C37.3449 26.1777 37.0029 25.952 36.6722 25.7253C35.1265 24.669 33.6661 23.6727 31.8727 23.6727C31.1932 23.6727 30.1023 24.145 29.5742 24.4417L28.9199 24.811L28.3133 24.3685C27.658 23.8868 26.9841 23.6727 26.1275 23.6727C24.3341 23.6727 22.8736 24.669 21.328 25.7242C20.4809 26.3038 19.6035 26.9026 18.6348 27.3633C17.6338 27.8398 16.8006 28.6249 16.2227 29.5955L16.2223 29.5954L16.2215 29.5976C16.2156 29.6075 16.2098 29.6173 16.204 29.6272C16.206 29.6279 16.208 29.6286 16.2101 29.6292L15.4459 31.752C15.4411 31.7505 15.4363 31.749 15.4314 31.7475L14.3164 37.2226C14.3612 37.2211 14.4049 37.2163 14.4485 37.2115C14.5008 37.2057 14.5529 37.2 14.6068 37.2H26.7038V39.4545H14.6068C12.052 39.4545 9.84205 41.0689 9.1082 43.471L7.56874 48.5113C7.82158 48.4876 8.07498 48.4727 8.33342 48.4727H19.8149V50.7273H8.33342Z"/>
</mask>
<path fill-rule="evenodd" clip-rule="evenodd" d="M49.6668 48.4727C54.0984 48.4727 57.7038 52.0125 57.7038 56.3636V59.7455V62H0.29654L0.296387 59.7455V56.3636C0.296387 53.1981 2.20922 50.4691 4.95569 49.2119L6.90833 42.8226C6.96308 42.6461 7.03451 42.4798 7.10612 42.3131C7.13277 42.2511 7.15943 42.189 7.18528 42.1263V24.205C7.18528 22.0561 8.40126 20.1241 10.3589 19.1636L11.7779 18.4668V15.7818H9.48157V12.4C9.48157 10.5357 11.0272 9.01818 12.926 9.01818H19.8149C21.7137 9.01818 23.2593 10.5357 23.2593 12.4V15.7818H20.9631V18.4668L22.3831 19.1636C23.45 19.6865 24.2948 20.5254 24.8532 21.5442C25.2619 21.471 25.6818 21.4182 26.1275 21.4182C27.2156 21.4182 28.1849 21.6626 29.0713 22.1624C29.7558 21.8453 30.8636 21.4182 31.8727 21.4182C34.3848 21.4182 36.2948 22.7226 37.9811 23.8742L37.9835 23.8758C38.6007 24.2975 39.1966 24.6806 39.801 25.0185L42.7779 23.0695V20.2909H38.4561C35.7741 20.2909 33.5927 18.1492 33.5927 15.516C33.5927 14.7784 33.7704 14.0403 34.1057 13.3809L39.5756 2.63984C40.4048 1.01113 42.0715 0 43.926 0C45.7805 0 47.4473 1.01113 48.2764 2.63874L53.7464 13.3798C54.0816 14.0403 54.2593 14.7784 54.2593 15.516C54.2593 18.1492 52.078 20.2909 49.396 20.2909H45.0742V23.0695L51.4512 27.245L50.1775 29.1208L45.0742 25.7798V28.7058L51.4512 32.8814L50.1775 34.7572L45.0742 31.4161V34.3422L51.4512 38.5177L50.1775 40.3936L45.0742 37.0525V39.9785L51.4512 44.153L50.1775 46.0288L45.0742 42.6877V46.3084C46.7998 46.5517 48.3499 47.3295 49.5406 48.4727H49.6668ZM36.1598 14.3887C35.9832 14.7371 35.889 15.1268 35.889 15.516C35.889 16.9058 37.0405 18.0364 38.4561 18.0364H49.396C50.8115 18.0364 51.9631 16.9058 51.9631 15.516C51.9631 15.1268 51.87 14.7371 51.6923 14.3887L46.2223 3.64767C45.9683 3.14954 45.5574 2.77965 45.0742 2.54077H42.7779C42.2946 2.77965 41.8837 3.14954 41.6297 3.64767L36.1598 14.3887ZM49.6668 55.1224V54.1091C49.6668 51.3867 47.6906 49.1096 45.0742 48.5867V49.6C45.0742 52.3213 47.0503 54.5995 49.6668 55.1224ZM38.1853 55.1224C40.8017 54.5995 42.7779 52.3224 42.7779 49.6V48.5867C40.1615 49.1096 38.1853 51.3867 38.1853 54.1091V55.1224ZM12.926 11.2727C12.2936 11.2727 11.7779 11.7791 11.7779 12.4V13.5273H20.9631V12.4C20.9631 11.7791 20.4473 11.2727 19.8149 11.2727H12.926ZM14.0742 19.8605L11.3854 21.1804C10.2104 21.7561 9.48157 22.9153 9.48157 24.205V39.0252C10.1947 38.4434 11.0009 37.9799 11.8844 37.6701L13.2282 31.0754C13.7434 28.5495 15.3899 26.4028 17.6335 25.3356C18.4408 24.9508 19.2066 24.4279 20.0167 23.8747C20.8229 23.3243 21.6829 22.7414 22.6326 22.2807C22.3063 21.8205 21.8769 21.4363 21.3555 21.1804L18.6668 19.8605V15.7818H14.0742V19.8605ZM8.33342 50.7273C5.16817 50.7273 2.59268 53.2559 2.59268 56.3636V59.7455H55.4075V56.3636C55.4075 53.8185 53.669 51.6878 51.3049 50.9898C51.7265 51.947 51.9631 53.0011 51.9631 54.1091V57.4909H50.8149C47.8896 57.4909 45.3326 55.9431 43.926 53.6434C42.5194 55.9431 39.9624 57.4909 37.0371 57.4909H35.889V54.1091C35.889 50.1422 38.8889 46.8583 42.7779 46.3084V42.6877L37.6734 46.0277L36.3997 44.1519L42.7779 39.9774V37.0514L37.6734 40.3914L36.3997 38.5155L42.7779 34.3411V31.415L37.6734 34.755L36.3997 32.8792L42.7779 28.7047V25.7787L37.6734 29.1197L36.3997 27.2439L37.6891 26.4006C37.3449 26.1777 37.0029 25.952 36.6722 25.7253C35.1265 24.669 33.6661 23.6727 31.8727 23.6727C31.1932 23.6727 30.1023 24.145 29.5742 24.4417L28.9199 24.811L28.3133 24.3685C27.658 23.8868 26.9841 23.6727 26.1275 23.6727C24.3341 23.6727 22.8736 24.669 21.328 25.7242C20.4809 26.3038 19.6035 26.9026 18.6348 27.3633C17.6338 27.8398 16.8006 28.6249 16.2227 29.5955L16.2223 29.5954L16.2215 29.5976C16.2156 29.6075 16.2098 29.6173 16.204 29.6272C16.206 29.6279 16.208 29.6286 16.2101 29.6292L15.4459 31.752C15.4411 31.7505 15.4363 31.749 15.4314 31.7475L14.3164 37.2226C14.3612 37.2211 14.4049 37.2163 14.4485 37.2115C14.5008 37.2057 14.5529 37.2 14.6068 37.2H26.7038V39.4545H14.6068C12.052 39.4545 9.84205 41.0689 9.1082 43.471L7.56874 48.5113C7.82158 48.4876 8.07498 48.4727 8.33342 48.4727H19.8149V50.7273H8.33342Z" fill="#322153"/>
<path d="M57.7038 62V63H58.7038V62H57.7038ZM0.29654 62L-0.70346 62.0001L-0.703391 63H0.29654V62ZM0.296387 59.7455H-0.703613V59.7455L0.296387 59.7455ZM4.95569 49.2119L5.3719 50.1212L5.78065 49.9341L5.91203 49.5042L4.95569 49.2119ZM6.90833 42.8226L5.95322 42.5263L5.95199 42.5303L6.90833 42.8226ZM7.10612 42.3131L8.02493 42.7078L8.02494 42.7078L7.10612 42.3131ZM7.18528 42.1263L8.10979 42.5075L8.18528 42.3244V42.1263H7.18528ZM10.3589 19.1636L10.7994 20.0614L10.7998 20.0612L10.3589 19.1636ZM11.7779 18.4668L12.2187 19.3644L12.7779 19.0898V18.4668H11.7779ZM11.7779 15.7818H12.7779V14.7818H11.7779V15.7818ZM9.48157 15.7818H8.48157V16.7818H9.48157V15.7818ZM23.2593 15.7818V16.7818H24.2593V15.7818H23.2593ZM20.9631 15.7818V14.7818H19.9631V15.7818H20.9631ZM20.9631 18.4668H19.9631V19.09L20.5225 19.3645L20.9631 18.4668ZM22.3831 19.1636L21.9426 20.0614L21.943 20.0616L22.3831 19.1636ZM24.8532 21.5442L23.9763 22.0248L24.3218 22.6553L25.0295 22.5286L24.8532 21.5442ZM29.0713 22.1624L28.5801 23.0334L29.0265 23.2851L29.4916 23.0698L29.0713 22.1624ZM37.9811 23.8742L38.5454 23.0487L38.545 23.0484L37.9811 23.8742ZM37.9835 23.8758L37.4191 24.7014L37.4194 24.7016L37.9835 23.8758ZM39.801 25.0185L39.3129 25.8913L39.8418 26.1871L40.3488 25.8551L39.801 25.0185ZM42.7779 23.0695L43.3256 23.9061L43.7779 23.61V23.0695H42.7779ZM42.7779 20.2909H43.7779V19.2909H42.7779V20.2909ZM34.1057 13.3809L33.2146 12.9271L33.2142 12.9277L34.1057 13.3809ZM39.5756 2.63984L40.4667 3.09365L40.4668 3.09352L39.5756 2.63984ZM48.2764 2.63874L49.1675 2.18494L49.1675 2.18482L48.2764 2.63874ZM53.7464 13.3798L54.6381 12.9272L54.6375 12.926L53.7464 13.3798ZM45.0742 20.2909V19.2909H44.0742V20.2909H45.0742ZM45.0742 23.0695H44.0742V23.61L44.5264 23.9061L45.0742 23.0695ZM51.4512 27.245L52.2785 27.8067L52.8498 26.9654L51.999 26.4084L51.4512 27.245ZM50.1775 29.1208L49.6297 29.9575L50.4524 30.4961L51.0048 29.6826L50.1775 29.1208ZM45.0742 25.7798L45.6219 24.9431L44.0742 23.9298V25.7798H45.0742ZM45.0742 28.7058H44.0742V29.2463L44.5264 29.5424L45.0742 28.7058ZM51.4512 32.8814L52.2785 33.4431L52.8498 32.6018L51.999 32.0447L51.4512 32.8814ZM50.1775 34.7572L49.6297 35.5939L50.4524 36.1325L51.0048 35.319L50.1775 34.7572ZM45.0742 31.4161L45.6219 30.5795L44.0742 29.5662V31.4161H45.0742ZM45.0742 34.3422H44.0742V34.8827L44.5264 35.1788L45.0742 34.3422ZM51.4512 38.5177L52.2785 39.0795L52.8498 38.2382L51.999 37.6811L51.4512 38.5177ZM50.1775 40.3936L49.6297 41.2302L50.4524 41.7688L51.0048 40.9553L50.1775 40.3936ZM45.0742 37.0525L45.6219 36.2158L44.0742 35.2025V37.0525H45.0742ZM45.0742 39.9785H44.0742V40.5191L44.5265 40.8152L45.0742 39.9785ZM51.4512 44.153L52.2785 44.7147L52.8498 43.8733L51.9989 43.3163L51.4512 44.153ZM50.1775 46.0288L49.6297 46.8655L50.4524 47.4041L51.0048 46.5906L50.1775 46.0288ZM45.0742 42.6877L45.6219 41.8511L44.0742 40.8378V42.6877H45.0742ZM45.0742 46.3084H44.0742V47.1773L44.9346 47.2987L45.0742 46.3084ZM49.5406 48.4727L48.8481 49.1941L49.1383 49.4727H49.5406V48.4727ZM36.1598 14.3887L35.2687 13.9349L35.2678 13.9366L36.1598 14.3887ZM51.6923 14.3887L50.8012 14.8425L50.8015 14.8431L51.6923 14.3887ZM46.2223 3.64767L47.1134 3.19387L47.1132 3.19348L46.2223 3.64767ZM45.0742 2.54077L45.5173 1.64431L45.3078 1.54077H45.0742V2.54077ZM42.7779 2.54077V1.54077H42.5442L42.3347 1.64431L42.7779 2.54077ZM41.6297 3.64767L40.7388 3.19348L40.7386 3.19387L41.6297 3.64767ZM49.6668 55.1224L49.4708 56.103L50.6668 56.3421V55.1224H49.6668ZM45.0742 48.5867L45.2701 47.6061L44.0742 47.367V48.5867H45.0742ZM38.1853 55.1224H37.1853V56.3421L38.3813 56.103L38.1853 55.1224ZM42.7779 48.5867H43.7779V47.367L42.5819 47.6061L42.7779 48.5867ZM11.7779 13.5273H10.7779V14.5273H11.7779V13.5273ZM20.9631 13.5273V14.5273H21.9631V13.5273H20.9631ZM11.3854 21.1804L11.8254 22.0784L11.8261 22.0781L11.3854 21.1804ZM14.0742 19.8605L14.5148 20.7581L15.0742 20.4836V19.8605H14.0742ZM9.48157 39.0252H8.48157V41.1317L10.1137 39.8L9.48157 39.0252ZM11.8844 37.6701L12.2154 38.6137L12.7509 38.4259L12.8642 37.8697L11.8844 37.6701ZM13.2282 31.0754L12.2484 30.8756L12.2483 30.8757L13.2282 31.0754ZM17.6335 25.3356L18.0631 26.2386L18.0638 26.2383L17.6335 25.3356ZM20.0167 23.8747L19.4529 23.0489L19.4528 23.0489L20.0167 23.8747ZM22.6326 22.2807L23.069 23.1804L24.1311 22.6652L23.4483 21.7023L22.6326 22.2807ZM21.3555 21.1804L21.7962 20.2827L21.3555 21.1804ZM18.6668 19.8605H17.6668V20.4836L18.2261 20.7581L18.6668 19.8605ZM18.6668 15.7818H19.6668V14.7818H18.6668V15.7818ZM14.0742 15.7818V14.7818H13.0742V15.7818H14.0742ZM2.59268 59.7455H1.59268V60.7455H2.59268V59.7455ZM55.4075 59.7455V60.7455H56.4075V59.7455H55.4075ZM51.3049 50.9898L51.588 50.0307L49.521 49.4205L50.3897 51.3929L51.3049 50.9898ZM51.9631 57.4909V58.4909H52.9631V57.4909H51.9631ZM43.926 53.6434L44.7791 53.1216L43.926 51.7269L43.0729 53.1216L43.926 53.6434ZM35.889 57.4909H34.889V58.4909H35.889V57.4909ZM42.7779 46.3084L42.9179 47.2986L43.7779 47.177V46.3084H42.7779ZM42.7779 42.6877H43.7779V40.8384L42.2303 41.851L42.7779 42.6877ZM37.6734 46.0277L36.8461 46.5895L37.3984 47.4028L38.221 46.8645L37.6734 46.0277ZM36.3997 44.1519L35.8521 43.3152L35.001 43.8722L35.5724 44.7136L36.3997 44.1519ZM42.7779 39.9774L43.3255 40.8142L43.7779 40.5181V39.9774H42.7779ZM42.7779 37.0514H43.7779V35.202L42.2303 36.2146L42.7779 37.0514ZM37.6734 40.3914L36.8461 40.9531L37.3984 41.7664L38.221 41.2282L37.6734 40.3914ZM36.3997 38.5155L35.8521 37.6788L35.001 38.2358L35.5724 39.0773L36.3997 38.5155ZM42.7779 34.3411L43.3255 35.1778L43.7779 34.8817V34.3411H42.7779ZM42.7779 31.415H43.7779V29.5656L42.2303 30.5782L42.7779 31.415ZM37.6734 34.755L36.8461 35.3168L37.3984 36.13L38.221 35.5918L37.6734 34.755ZM36.3997 32.8792L35.8521 32.0424L35.001 32.5994L35.5724 33.4409L36.3997 32.8792ZM42.7779 28.7047L43.3255 29.5414L43.7779 29.2454V28.7047H42.7779ZM42.7779 25.7787H43.7779V23.9289L42.2302 24.942L42.7779 25.7787ZM37.6734 29.1197L36.8461 29.6815L37.3984 30.4949L38.2211 29.9564L37.6734 29.1197ZM36.3997 27.2439L35.8524 26.407L35.0008 26.9639L35.5724 27.8056L36.3997 27.2439ZM37.6891 26.4006L38.2365 27.2376L39.5225 26.3965L38.2327 25.5613L37.6891 26.4006ZM36.6722 25.7253L37.2376 24.9005L37.2364 24.8996L36.6722 25.7253ZM29.5742 24.4417L29.0844 23.5698L29.0826 23.5709L29.5742 24.4417ZM28.9199 24.811L28.3305 25.6189L28.8508 25.9984L29.4115 25.6818L28.9199 24.811ZM28.3133 24.3685L27.7211 25.1743L27.724 25.1763L28.3133 24.3685ZM21.328 25.7242L20.7642 24.8983L20.7633 24.8989L21.328 25.7242ZM18.6348 27.3633L18.2053 26.4603L18.205 26.4604L18.6348 27.3633ZM16.2227 29.5955L15.8693 30.531L16.6532 30.8271L17.0819 30.1071L16.2227 29.5955ZM16.2223 29.5954L16.5757 28.6599L15.6254 28.3009L15.2814 29.2567L16.2223 29.5954ZM16.2215 29.5976L17.0809 30.1088L17.1299 30.0265L17.1624 29.9363L16.2215 29.5976ZM16.204 29.6272L15.3417 29.1208L14.7114 30.1941L15.8952 30.5784L16.204 29.6272ZM16.2101 29.6292L17.151 29.9679L17.5001 28.998L16.52 28.6785L16.2101 29.6292ZM15.4459 31.752L15.1471 32.7063L16.0621 32.9928L16.3868 32.0907L15.4459 31.752ZM15.4314 31.7475L15.7263 30.792L14.6718 30.4665L14.4515 31.5479L15.4314 31.7475ZM14.3164 37.2226L13.3365 37.023L13.0836 38.2644L14.3498 38.222L14.3164 37.2226ZM14.4485 37.2115L14.3393 36.2175L14.3393 36.2175L14.4485 37.2115ZM26.7038 37.2H27.7038V36.2H26.7038V37.2ZM26.7038 39.4545V40.4545H27.7038V39.4545H26.7038ZM9.1082 43.471L8.15183 43.1788L8.15181 43.1789L9.1082 43.471ZM7.56874 48.5113L6.61235 48.2191L6.17656 49.646L7.66195 49.5069L7.56874 48.5113ZM19.8149 48.4727H20.8149V47.4727H19.8149V48.4727ZM19.8149 50.7273V51.7273H20.8149V50.7273H19.8149ZM58.7038 56.3636C58.7038 51.443 54.6334 47.4727 49.6668 47.4727V49.4727C53.5635 49.4727 56.7038 52.582 56.7038 56.3636H58.7038ZM58.7038 59.7455V56.3636H56.7038V59.7455H58.7038ZM58.7038 62V59.7455H56.7038V62H58.7038ZM0.29654 63H57.7038V61H0.29654V63ZM-0.703613 59.7455L-0.70346 62.0001L1.29654 61.9999L1.29639 59.7454L-0.703613 59.7455ZM-0.703613 56.3636V59.7455H1.29639V56.3636H-0.703613ZM4.53948 48.3027C1.46093 49.7119 -0.703613 52.7816 -0.703613 56.3636H1.29639C1.29639 53.6146 2.9575 51.2264 5.3719 50.1212L4.53948 48.3027ZM5.95199 42.5303L3.99936 48.9197L5.91203 49.5042L7.86467 43.1149L5.95199 42.5303ZM6.18731 41.9184C6.11887 42.0777 6.02605 42.2915 5.95322 42.5263L7.86344 43.1189C7.90011 43.0006 7.95016 42.8819 8.02493 42.7078L6.18731 41.9184ZM6.26076 41.7452C6.23818 41.7999 6.21443 41.8553 6.18731 41.9184L8.02494 42.7078C8.0511 42.6469 8.08068 42.5781 8.10979 42.5075L6.26076 41.7452ZM6.18528 24.205V42.1263H8.18528V24.205H6.18528ZM9.91847 18.2659C7.62465 19.3913 6.18528 21.6676 6.18528 24.205H8.18528C8.18528 22.4446 9.17787 20.857 10.7994 20.0614L9.91847 18.2659ZM11.3371 17.5692L9.91813 18.266L10.7998 20.0612L12.2187 19.3644L11.3371 17.5692ZM10.7779 15.7818V18.4668H12.7779V15.7818H10.7779ZM9.48157 16.7818H11.7779V14.7818H9.48157V16.7818ZM8.48157 12.4V15.7818H10.4816V12.4H8.48157ZM12.926 8.01818C10.4923 8.01818 8.48157 9.9662 8.48157 12.4H10.4816C10.4816 11.1052 11.5621 10.0182 12.926 10.0182V8.01818ZM19.8149 8.01818H12.926V10.0182H19.8149V8.01818ZM24.2593 12.4C24.2593 9.9662 22.2486 8.01818 19.8149 8.01818V10.0182C21.1788 10.0182 22.2593 11.1052 22.2593 12.4H24.2593ZM24.2593 15.7818V12.4H22.2593V15.7818H24.2593ZM20.9631 16.7818H23.2593V14.7818H20.9631V16.7818ZM21.9631 18.4668V15.7818H19.9631V18.4668H21.9631ZM22.8236 18.2659L21.4036 17.5691L20.5225 19.3645L21.9426 20.0614L22.8236 18.2659ZM25.7301 21.0636C25.0782 19.8741 24.0854 18.8843 22.8232 18.2657L21.943 20.0616C22.8145 20.4888 23.5114 21.1766 23.9763 22.0248L25.7301 21.0636ZM26.1275 20.4182C25.6025 20.4182 25.1199 20.4805 24.6769 20.5599L25.0295 22.5286C25.4039 22.4615 25.761 22.4182 26.1275 22.4182V20.4182ZM29.5625 21.2913C28.5153 20.7008 27.3747 20.4182 26.1275 20.4182V22.4182C27.0565 22.4182 27.8546 22.6243 28.5801 23.0334L29.5625 21.2913ZM31.8727 20.4182C30.6342 20.4182 29.3599 20.9266 28.651 21.255L29.4916 23.0698C30.1517 22.764 31.0929 22.4182 31.8727 22.4182V20.4182ZM38.545 23.0484C36.8881 21.9168 34.7357 20.4182 31.8727 20.4182V22.4182C34.0338 22.4182 35.7014 23.5283 37.4171 24.7L38.545 23.0484ZM38.5478 23.0503L38.5454 23.0487L37.4168 24.6998L37.4191 24.7014L38.5478 23.0503ZM40.2891 24.1457C39.7203 23.8277 39.1513 23.4625 38.5475 23.0501L37.4194 24.7016C38.0501 25.1324 38.673 25.5334 39.3129 25.8913L40.2891 24.1457ZM42.2301 22.2328L39.2532 24.1819L40.3488 25.8551L43.3256 23.9061L42.2301 22.2328ZM41.7779 20.2909V23.0695H43.7779V20.2909H41.7779ZM38.4561 21.2909H42.7779V19.2909H38.4561V21.2909ZM32.5927 15.516C32.5927 18.7187 35.2391 21.2909 38.4561 21.2909V19.2909C36.309 19.2909 34.5927 17.5797 34.5927 15.516H32.5927ZM33.2142 12.9277C32.8081 13.7266 32.5927 14.6199 32.5927 15.516H34.5927C34.5927 14.9369 34.7327 14.354 34.9971 13.8341L33.2142 12.9277ZM38.6845 2.18604L33.2146 12.9271L34.9968 13.8347L40.4667 3.09365L38.6845 2.18604ZM43.926 -1C41.7025 -1 39.6875 0.215877 38.6845 2.18616L40.4668 3.09352C41.122 1.80639 42.4405 1 43.926 1V-1ZM49.1675 2.18482C48.1644 0.215773 46.1494 -1 43.926 -1V1C45.4117 1 46.7302 1.80649 47.3854 3.09267L49.1675 2.18482ZM54.6375 12.926L49.1675 2.18494L47.3853 3.09255L52.8553 13.8336L54.6375 12.926ZM55.2593 15.516C55.2593 14.6198 55.0439 13.7267 54.6381 12.9272L52.8547 13.8324C53.1193 14.3538 53.2593 14.937 53.2593 15.516H55.2593ZM49.396 21.2909C52.6129 21.2909 55.2593 18.7187 55.2593 15.516H53.2593C53.2593 17.5797 51.5431 19.2909 49.396 19.2909V21.2909ZM45.0742 21.2909H49.396V19.2909H45.0742V21.2909ZM46.0742 23.0695V20.2909H44.0742V23.0695H46.0742ZM51.999 26.4084L45.622 22.2328L44.5264 23.9061L50.9034 28.0816L51.999 26.4084ZM51.0048 29.6826L52.2785 27.8067L50.6239 26.6832L49.3502 28.5591L51.0048 29.6826ZM44.5264 26.6164L49.6297 29.9575L50.7252 28.2842L45.6219 24.9431L44.5264 26.6164ZM46.0742 28.7058V25.7798H44.0742V28.7058H46.0742ZM51.999 32.0447L45.622 27.8692L44.5264 29.5424L50.9034 33.718L51.999 32.0447ZM51.0048 35.319L52.2785 33.4431L50.6239 32.3196L49.3502 34.1955L51.0048 35.319ZM44.5264 32.2528L49.6297 35.5939L50.7252 33.9206L45.6219 30.5795L44.5264 32.2528ZM46.0742 34.3422V31.4161H44.0742V34.3422H46.0742ZM51.999 37.6811L45.622 33.5056L44.5264 35.1788L50.9034 39.3543L51.999 37.6811ZM51.0048 40.9553L52.2785 39.0795L50.6239 37.956L49.3502 39.8318L51.0048 40.9553ZM44.5264 37.8891L49.6297 41.2302L50.7252 39.5569L45.6219 36.2158L44.5264 37.8891ZM46.0742 39.9785V37.0525H44.0742V39.9785H46.0742ZM51.9989 43.3163L45.6219 39.1419L44.5265 40.8152L50.9035 44.9897L51.9989 43.3163ZM51.0048 46.5906L52.2785 44.7147L50.6239 43.5912L49.3502 45.4671L51.0048 46.5906ZM44.5264 43.5244L49.6297 46.8655L50.7252 45.1922L45.6219 41.8511L44.5264 43.5244ZM46.0742 46.3084V42.6877H44.0742V46.3084H46.0742ZM50.2332 47.7514C48.8932 46.4649 47.1504 45.5913 45.2138 45.3182L44.9346 47.2987C46.4491 47.5122 47.8065 48.1941 48.8481 49.1941L50.2332 47.7514ZM49.6668 47.4727H49.5406V49.4727H49.6668V47.4727ZM36.889 15.516C36.889 15.286 36.9452 15.051 37.0517 14.8408L35.2678 13.9366C35.0211 14.4232 34.889 14.9676 34.889 15.516H36.889ZM38.4561 17.0364C37.5754 17.0364 36.889 16.3363 36.889 15.516H34.889C34.889 17.4753 36.5056 19.0364 38.4561 19.0364V17.0364ZM49.396 17.0364H38.4561V19.0364H49.396V17.0364ZM50.9631 15.516C50.9631 16.3363 50.2766 17.0364 49.396 17.0364V19.0364C51.3464 19.0364 52.9631 17.4753 52.9631 15.516H50.9631ZM50.8015 14.8431C50.9071 15.0503 50.9631 15.2842 50.9631 15.516H52.9631C52.9631 14.9694 52.8328 14.424 52.5831 13.9343L50.8015 14.8431ZM45.3312 4.10148L50.8012 14.8425L52.5834 13.9349L47.1134 3.19387L45.3312 4.10148ZM44.631 3.43722C44.9485 3.59414 45.1881 3.82084 45.3314 4.10187L47.1132 3.19348C46.7486 2.47823 46.1664 1.96516 45.5173 1.64431L44.631 3.43722ZM42.7779 3.54077H45.0742V1.54077H42.7779V3.54077ZM42.5206 4.10187C42.6639 3.82084 42.9036 3.59414 43.221 3.43722L42.3347 1.64431C41.6857 1.96516 41.1035 2.47823 40.7388 3.19348L42.5206 4.10187ZM37.0509 14.8425L42.5208 4.10148L40.7386 3.19387L35.2687 13.9349L37.0509 14.8425ZM48.6668 54.1091V55.1224H50.6668V54.1091H48.6668ZM44.8782 49.5673C47.0496 50.0012 48.6668 51.886 48.6668 54.1091H50.6668C50.6668 50.8874 48.3316 48.2179 45.2701 47.6061L44.8782 49.5673ZM46.0742 49.6V48.5867H44.0742V49.6H46.0742ZM49.8627 54.1418C47.6915 53.7079 46.0742 51.8222 46.0742 49.6H44.0742C44.0742 52.8205 46.4092 55.4912 49.4708 56.103L49.8627 54.1418ZM41.7779 49.6C41.7779 51.8231 40.1607 53.7079 37.9893 54.1418L38.3813 56.103C41.4427 55.4912 43.7779 52.8217 43.7779 49.6H41.7779ZM41.7779 48.5867V49.6H43.7779V48.5867H41.7779ZM39.1853 54.1091C39.1853 51.886 40.8025 50.0012 42.9739 49.5673L42.5819 47.6061C39.5205 48.2179 37.1853 50.8874 37.1853 54.1091H39.1853ZM39.1853 55.1224V54.1091H37.1853V55.1224H39.1853ZM12.7779 12.4C12.7779 12.3486 12.8285 12.2727 12.926 12.2727V10.2727C11.7587 10.2727 10.7779 11.2096 10.7779 12.4H12.7779ZM12.7779 13.5273V12.4H10.7779V13.5273H12.7779ZM20.9631 12.5273H11.7779V14.5273H20.9631V12.5273ZM19.9631 12.4V13.5273H21.9631V12.4H19.9631ZM19.8149 12.2727C19.9124 12.2727 19.9631 12.3486 19.9631 12.4H21.9631C21.9631 11.2096 20.9822 10.2727 19.8149 10.2727V12.2727ZM12.926 12.2727H19.8149V10.2727H12.926V12.2727ZM11.8261 22.0781L14.5148 20.7581L13.6335 18.9628L10.9448 20.2827L11.8261 22.0781ZM10.4816 24.205C10.4816 23.3034 10.9874 22.489 11.8254 22.0784L10.9454 20.2824C9.43337 21.0233 8.48157 22.5273 8.48157 24.205H10.4816ZM10.4816 39.0252V24.205H8.48157V39.0252H10.4816ZM11.5534 36.7264C10.5545 37.0768 9.64731 37.5994 8.84941 38.2504L10.1137 39.8C10.742 39.2874 11.4472 38.8831 12.2154 38.6137L11.5534 36.7264ZM12.2483 30.8757L10.9045 37.4704L12.8642 37.8697L14.2081 31.2751L12.2483 30.8757ZM17.204 24.4325C14.6641 25.6408 12.8235 28.0558 12.2484 30.8756L14.208 31.2753C14.6633 29.0432 16.1158 27.1649 18.0631 26.2386L17.204 24.4325ZM19.4528 23.0489C18.6293 23.6113 17.9282 24.0874 17.2033 24.4328L18.0638 26.2383C18.9534 25.8143 19.784 25.2446 20.5806 24.7006L19.4528 23.0489ZM22.1961 21.381C21.1706 21.8785 20.2532 22.5024 19.4529 23.0489L20.5806 24.7006C21.3926 24.1462 22.1952 23.6043 23.069 23.1804L22.1961 21.381ZM20.9148 22.0781C21.2735 22.2542 21.5783 22.5227 21.8168 22.8591L23.4483 21.7023C23.0343 21.1184 22.4802 20.6185 21.7962 20.2827L20.9148 22.0781ZM18.2261 20.7581L20.9148 22.0781L21.7962 20.2827L19.1074 18.9628L18.2261 20.7581ZM17.6668 15.7818V19.8605H19.6668V15.7818H17.6668ZM14.0742 16.7818H18.6668V14.7818H14.0742V16.7818ZM15.0742 19.8605V15.7818H13.0742V19.8605H15.0742ZM3.59268 56.3636C3.59268 53.8254 5.70308 51.7273 8.33342 51.7273V49.7273C4.63326 49.7273 1.59268 52.6864 1.59268 56.3636H3.59268ZM3.59268 59.7455V56.3636H1.59268V59.7455H3.59268ZM55.4075 58.7455H2.59268V60.7455H55.4075V58.7455ZM54.4075 56.3636V59.7455H56.4075V56.3636H54.4075ZM51.0217 51.9489C52.9924 52.5307 54.4075 54.2938 54.4075 56.3636H56.4075C56.4075 53.3431 54.3457 50.8449 51.588 50.0307L51.0217 51.9489ZM52.9631 54.1091C52.9631 52.8572 52.6955 51.6662 52.2201 50.5868L50.3897 51.3929C50.7574 52.2278 50.9631 53.145 50.9631 54.1091H52.9631ZM52.9631 57.4909V54.1091H50.9631V57.4909H52.9631ZM50.8149 58.4909H51.9631V56.4909H50.8149V58.4909ZM43.0729 54.1652C44.6548 56.7514 47.5292 58.4909 50.8149 58.4909V56.4909C48.25 56.4909 46.0104 55.1348 44.7791 53.1216L43.0729 54.1652ZM37.0371 58.4909C40.3229 58.4909 43.1973 56.7514 44.7791 54.1652L43.0729 53.1216C41.8416 55.1348 39.602 56.4909 37.0371 56.4909V58.4909ZM35.889 58.4909H37.0371V56.4909H35.889V58.4909ZM34.889 54.1091V57.4909H36.889V54.1091H34.889ZM42.6379 45.3183C38.279 45.9346 34.889 49.6207 34.889 54.1091H36.889C36.889 50.6636 39.4987 47.782 42.9179 47.2986L42.6379 45.3183ZM41.7779 42.6877V46.3084H43.7779V42.6877H41.7779ZM38.221 46.8645L43.3254 43.5245L42.2303 41.851L37.1259 45.191L38.221 46.8645ZM35.5724 44.7136L36.8461 46.5895L38.5007 45.466L37.227 43.5901L35.5724 44.7136ZM42.2302 39.1407L35.8521 43.3152L36.9473 44.9886L43.3255 40.8142L42.2302 39.1407ZM41.7779 37.0514V39.9774H43.7779V37.0514H41.7779ZM38.221 41.2282L43.3254 37.8882L42.2303 36.2146L37.1259 39.5546L38.221 41.2282ZM35.5724 39.0773L36.8461 40.9531L38.5007 39.8296L37.227 37.9538L35.5724 39.0773ZM42.2302 33.5044L35.8521 37.6788L36.9473 39.3522L43.3255 35.1778L42.2302 33.5044ZM41.7779 31.415V34.3411H43.7779V31.415H41.7779ZM38.221 35.5918L43.3254 32.2518L42.2303 30.5782L37.1259 33.9182L38.221 35.5918ZM35.5724 33.4409L36.8461 35.3168L38.5007 34.1933L37.227 32.3174L35.5724 33.4409ZM42.2302 27.868L35.8521 32.0424L36.9473 33.7159L43.3255 29.5414L42.2302 27.868ZM41.7779 25.7787V28.7047H43.7779V25.7787H41.7779ZM38.2211 29.9564L43.3255 26.6154L42.2302 24.942L37.1258 28.283L38.2211 29.9564ZM35.5724 27.8056L36.8461 29.6815L38.5007 28.558L37.227 26.6821L35.5724 27.8056ZM37.1418 25.5637L35.8524 26.407L36.947 28.0808L38.2365 27.2376L37.1418 25.5637ZM36.1067 26.55C36.4471 26.7834 36.7968 27.0142 37.1455 27.24L38.2327 25.5613C37.893 25.3413 37.5588 25.1207 37.2376 24.9005L36.1067 26.55ZM31.8727 24.6727C33.3045 24.6727 34.5086 25.4579 36.1079 26.5509L37.2364 24.8996C35.7445 23.8801 34.0277 22.6727 31.8727 22.6727V24.6727ZM30.064 25.3135C30.2804 25.1919 30.6363 25.022 31.0105 24.885C31.409 24.739 31.7155 24.6727 31.8727 24.6727V22.6727C31.3504 22.6727 30.7717 22.8425 30.3228 23.0069C29.8497 23.1802 29.396 23.3947 29.0844 23.5698L30.064 25.3135ZM29.4115 25.6818L30.0658 25.3125L29.0826 23.5709L28.4283 23.9402L29.4115 25.6818ZM27.724 25.1763L28.3305 25.6189L29.5093 24.0031L28.9027 23.5606L27.724 25.1763ZM26.1275 24.6727C26.7836 24.6727 27.2473 24.8261 27.7211 25.1743L28.9055 23.5627C28.0686 22.9476 27.1846 22.6727 26.1275 22.6727V24.6727ZM21.8918 26.5501C23.4916 25.458 24.6955 24.6727 26.1275 24.6727V22.6727C23.9726 22.6727 22.2557 23.88 20.7642 24.8983L21.8918 26.5501ZM19.0643 28.2664C20.1147 27.7668 21.0546 27.1229 21.8927 26.5495L20.7633 24.8989C19.9072 25.4846 19.0924 26.0384 18.2053 26.4603L19.0643 28.2664ZM17.0819 30.1071C17.5658 29.2944 18.2546 28.6518 19.0646 28.2663L18.205 26.4604C17.0129 27.0278 16.0354 27.9554 15.3635 29.084L17.0819 30.1071ZM15.8689 30.5308L15.8693 30.531L16.5761 28.66L16.5757 28.6599L15.8689 30.5308ZM17.1624 29.9363L17.1632 29.934L15.2814 29.2567L15.2806 29.2589L17.1624 29.9363ZM17.0662 30.1336C17.0712 30.1253 17.076 30.117 17.0809 30.1088L15.362 29.0863C15.3552 29.0979 15.3484 29.1094 15.3417 29.1208L17.0662 30.1336ZM16.52 28.6785C16.5179 28.6778 16.5154 28.677 16.5127 28.6761L15.8952 30.5784C15.8966 30.5788 15.8982 30.5794 15.9001 30.58L16.52 28.6785ZM16.3868 32.0907L17.151 29.9679L15.2692 29.2905L14.505 31.4133L16.3868 32.0907ZM15.1365 32.703C15.1401 32.7041 15.1436 32.7052 15.1471 32.7063L15.7447 30.7977C15.7386 30.7957 15.7324 30.7938 15.7263 30.792L15.1365 32.703ZM15.2962 37.4221L16.4113 31.947L14.4515 31.5479L13.3365 37.023L15.2962 37.4221ZM14.3393 36.2175C14.3159 36.22 14.3037 36.2213 14.2929 36.2223C14.2832 36.2232 14.2809 36.2232 14.2829 36.2231L14.3498 38.222C14.4388 38.219 14.5199 38.2097 14.5578 38.2055L14.3393 36.2175ZM14.6068 36.2C14.4894 36.2 14.3834 36.2126 14.3393 36.2175L14.5577 38.2055C14.5714 38.204 14.581 38.2029 14.59 38.202C14.5987 38.2011 14.6045 38.2006 14.6086 38.2003C14.6169 38.1996 14.6149 38.2 14.6068 38.2V36.2ZM26.7038 36.2H14.6068V38.2H26.7038V36.2ZM27.7038 39.4545V37.2H25.7038V39.4545H27.7038ZM14.6068 40.4545H26.7038V38.4545H14.6068V40.4545ZM10.0646 43.7632C10.6669 41.7916 12.4813 40.4545 14.6068 40.4545V38.4545C11.6227 38.4545 9.01719 40.3463 8.15183 43.1788L10.0646 43.7632ZM8.52512 48.8034L10.0646 43.7631L8.15181 43.1789L6.61235 48.2191L8.52512 48.8034ZM8.33342 47.4727C8.03669 47.4727 7.75128 47.4898 7.47553 47.5156L7.66195 49.5069C7.89188 49.4854 8.11327 49.4727 8.33342 49.4727V47.4727ZM19.8149 47.4727H8.33342V49.4727H19.8149V47.4727ZM20.8149 50.7273V48.4727H18.8149V50.7273H20.8149ZM8.33342 51.7273H19.8149V49.7273H8.33342V51.7273Z" fill="#322153" mask="url(#path-1-inside-1_25402_187)"/>
</svg>
